<svg xmlns="http://www.w3.org/2000/svg" width="1200" height="675" viewBox="0 0 1200 675" role="img" aria-labelledby="title desc">
  <title id="title">Баллы IELTS: как рассчитать Overall</title>
  <desc id="desc">Четыре секционные оценки IELTS складываются, делятся на четыре и округляются до ближайшего целого или половинного балла.</desc>
  <rect width="1200" height="675" rx="30" fill="#F6F1E9"/>
  <circle cx="1140" cy="24" r="220" fill="#A33A31" opacity="0.07"/>
  <circle cx="28" cy="660" r="190" fill="#D95B4E" opacity="0.06"/>
  <text x="64" y="78" fill="#A33A31" font-family="Arial, sans-serif" font-size="25" font-weight="700" letter-spacing="2">IELTS · ШКАЛА ОЦЕНКИ</text>
  <text x="64" y="205" fill="#272523" font-family="Arial, sans-serif" font-size="62" font-weight="700">Баллы IELTS</text>
  <text x="64" y="278" fill="#272523" font-family="Arial, sans-serif" font-size="62" font-weight="700">и Overall</text>
  <text x="68" y="360" fill="#625E5A" font-family="Arial, sans-serif" font-size="27">Четыре секции → среднее →</text>
  <text x="68" y="400" fill="#625E5A" font-family="Arial, sans-serif" font-size="27">округление до ближайших 0.5</text>
  <line x1="68" y1="470" x2="555" y2="470" stroke="#D9D2C9" stroke-width="4" stroke-linecap="round"/>
  <text x="68" y="530" fill="#625E5A" font-family="Arial, sans-serif" font-size="22">Формула и примеры без путаницы</text>
  <rect x="638" y="64" width="500" height="550" rx="28" fill="#FFFFFF" stroke="#D9D2C9" stroke-width="3"/>
  <rect x="638" y="64" width="500" height="14" rx="7" fill="#A33A31"/>
  <text x="688" y="132" fill="#A33A31" font-family="Arial, sans-serif" font-size="21" font-weight="700" letter-spacing="1.5">ЧЕТЫРЕ ОЦЕНКИ</text>
  <g font-family="Arial, sans-serif" text-anchor="middle">
    <rect x="688" y="164" width="184" height="94" rx="17" fill="#F7E7E2"/>
    <text x="780" y="220" fill="#272523" font-size="25" font-weight="700">Listening</text>
    <rect x="904" y="164" width="184" height="94" rx="17" fill="#F0ECE6"/>
    <text x="996" y="220" fill="#272523" font-size="25" font-weight="700">Reading</text>
    <rect x="688" y="277" width="184" height="94" rx="17" fill="#F0ECE6"/>
    <text x="780" y="333" fill="#272523" font-size="25" font-weight="700">Writing</text>
    <rect x="904" y="277" width="184" height="94" rx="17" fill="#F7E7E2"/>
    <text x="996" y="333" fill="#272523" font-size="25" font-weight="700">Speaking</text>
  </g>
  <path d="M888 386v32m-12-12 12 12 12-12" fill="none" stroke="#A33A31" stroke-width="4" stroke-linecap="round" stroke-linejoin="round"/>
  <rect x="688" y="430" width="400" height="78" rx="17" fill="#272523"/>
  <text x="888" y="482" text-anchor="middle" fill="#FFFFFF" font-family="Arial, sans-serif" font-size="39" font-weight="700">Сумма ÷ 4</text>
  <path d="M888 516v26m-12-12 12 12 12-12" fill="none" stroke="#A33A31" stroke-width="4" stroke-linecap="round" stroke-linejoin="round"/>
  <rect x="688" y="552" width="400" height="42" rx="14" fill="#F7E7E2"/>
  <text x="888" y="581" text-anchor="middle" fill="#8E3029" font-family="Arial, sans-serif" font-size="21" font-weight="700">Overall · ближайший целый или 0.5</text>
</svg>
