<svg xmlns="http://www.w3.org/2000/svg" width="1200" height="675" viewBox="0 0 1200 675" role="img" aria-labelledby="title desc">
  <title id="title">Подготовка к IELTS самостоятельно</title>
  <desc id="desc">План подготовки через цель, исходный уровень, регулярную практику и разбор ошибок.</desc>
  <rect width="1200" height="675" rx="30" fill="#F6F1E9"/>
  <circle cx="1130" cy="40" r="225" fill="#A33A31" opacity="0.07"/>
  <circle cx="0" cy="675" r="190" fill="#D95B4E" opacity="0.06"/>
  <text x="64" y="220" fill="#272523" font-family="Arial, sans-serif" font-size="60" font-weight="700">Подготовка к IELTS</text>
  <text x="64" y="292" fill="#272523" font-family="Arial, sans-serif" font-size="60" font-weight="700">самостоятельно</text>
  <line x1="68" y1="350" x2="555" y2="350" stroke="#D9D2C9" stroke-width="4" stroke-linecap="round"/>
  <rect x="640" y="86" width="500" height="503" rx="28" fill="#FFFFFF" stroke="#D9D2C9" stroke-width="3"/>
  <rect x="640" y="86" width="500" height="14" rx="7" fill="#A33A31"/>
  <g font-family="Arial, sans-serif">
    <circle cx="728" cy="194" r="38" fill="#F7E7E2"/>
    <path d="M711 194h34M728 177v34" stroke="#8E3029" stroke-width="6" stroke-linecap="round"/>
    <text x="792" y="210" fill="#272523" font-size="46" font-weight="700">Цель</text>
    <circle cx="728" cy="302" r="38" fill="#F7E7E2"/>
    <path d="M709 306a20 20 0 1 1 38 0" fill="none" stroke="#8E3029" stroke-width="6" stroke-linecap="round"/>
    <path d="m728 302 13-13" stroke="#8E3029" stroke-width="6" stroke-linecap="round"/>
    <text x="792" y="318" fill="#272523" font-size="46" font-weight="700">Уровень</text>
    <circle cx="728" cy="410" r="38" fill="#F7E7E2"/>
    <path d="M710 410h36M728 392v36" stroke="#8E3029" stroke-width="6" stroke-linecap="round"/>
    <circle cx="728" cy="410" r="13" fill="none" stroke="#8E3029" stroke-width="5"/>
    <text x="792" y="426" fill="#272523" font-size="46" font-weight="700">Практика</text>
    <circle cx="728" cy="518" r="38" fill="#F7E7E2"/>
    <path d="m710 518 12 12 24-26" fill="none" stroke="#8E3029" stroke-width="6" stroke-linecap="round" stroke-linejoin="round"/>
    <text x="792" y="534" fill="#272523" font-size="46" font-weight="700">Разбор ошибок</text>
  </g>
</svg>
